<?xml version="1.0" encoding="utf-8"?>
<!-- Generator: Adobe Illustrator 19.0.0, SVG Export Plug-In . SVG Version: 6.00 Build 0)  -->
<svg version="1.1" id="Layer_1" xmlns="http://www.w3.org/2000/svg" xmlns:xlink="http://www.w3.org/1999/xlink" x="0px" y="0px"
	 viewBox="-737 489 24 24" style="enable-background:new -737 489 24 24;" xml:space="preserve">
<style type="text/css">
	.st0{fill:#F6F7EF;}
</style>
<path class="st0" d="M-729,492c-2.8,0-5,2.2-5,5v8c0,2.8,2.2,5,5,5h8c2.8,0,5-2.2,5-5v-8c0-2.8-2.2-5-5-5H-729z M-729,494h8
	c1.7,0,3,1.3,3,3v8c0,1.7-1.3,3-3,3h-8c-1.7,0-3-1.3-3-3v-8C-732,495.3-730.7,494-729,494z M-720,495c-0.6,0-1,0.4-1,1s0.4,1,1,1
	s1-0.4,1-1S-719.4,495-720,495z M-725,496c-2.8,0-5,2.2-5,5s2.2,5,5,5s5-2.2,5-5S-722.2,496-725,496z M-725,498c1.7,0,3,1.3,3,3
	s-1.3,3-3,3s-3-1.3-3-3S-726.7,498-725,498z"/>
</svg>
