<?xml version="1.0" encoding="utf-8"?>
<!-- Generator: Adobe Illustrator 19.0.0, SVG Export Plug-In . SVG Version: 6.00 Build 0)  -->
<svg version="1.1" id="Layer_1" xmlns="http://www.w3.org/2000/svg" xmlns:xlink="http://www.w3.org/1999/xlink" x="0px" y="0px"
	 viewBox="-737 489 24 24" style="enable-background:new -737 489 24 24;" xml:space="preserve">
<style type="text/css">
	.st0{fill:#F6F7EF;}
</style>
<path class="st0" d="M-732,492c-1.1,0-2,0.9-2,2v14c0,1.1,0.9,2,2,2h14c1.1,0,2-0.9,2-2v-14c0-1.1-0.9-2-2-2H-732z M-732,494h14v14
	h-14V494z M-729.2,495.3c-0.9,0-1.4,0.5-1.4,1.2s0.5,1.2,1.3,1.2c0.9,0,1.4-0.5,1.4-1.2S-728.4,495.3-729.2,495.3z M-730.5,499v7
	h2.5v-7H-730.5z M-725.9,499v7h2.5v-3.8c0-1.1,0.8-1.3,1.1-1.3s0.9,0.2,0.9,1.3v3.8h2.4v-3.8c0-2.2-1-3.2-2.2-3.2s-1.9,0.4-2.2,1v-1
	H-725.9z"/>
</svg>
