<svg xmlns="http://www.w3.org/2000/svg" xmlns:xlink="http://www.w3.org/1999/xlink" x="0" y="0" version="1.1" viewBox="0 0 300 300" style="enable-background:new 0 0 300 300" xml:space="preserve"><style type="text/css">.st0{fill:#454545}</style><g id="Layer_2"><path d="M87.5,193.9c0-4.3,0-8.3,0-12.5c-3.2,0-6.3,0-9.3,0c-11.9,0-23.8,0.1-35.7,0.1c-8.4,0-15-6.2-15.2-14.6 c-0.2-9.6-0.1-19.2-0.1-28.8c0-22.5,0-45,0-67.5c0-8.7,4.7-14.6,12.7-16c4.7-0.8,8.9,0.4,12.3,3.8c13.6,13.5,27.1,27.1,40.6,40.7 c4.5,4.6,6.6,10.1,6.5,16.6c-0.1,17.1-0.1,34.2-0.2,51.3c0,2.2,0.6,2.8,2.7,2.7c3.2-0.2,6.4,0,10,0c0-1,0-1.9,0-2.8 c0-13.3,0-26.6,0-39.9c0-8.5,5.1-14.9,12.9-15.9c3.3-0.4,6.6-0.2,10-0.2c12.9,0,25.8,0,38.9,0c0-4.3,0-8.5,0-12.9 c-0.8,0-1.6,0-2.5,0c-16.9,0-33.9,0-50.8,0c-6.5,0-12-2.2-16.7-6.8c-14-13.7-28-27.3-41.9-41c-4.8-4.7-6.2-11-3.8-16.8 c2.4-5.8,7.8-9.2,14.5-9.2c32.5,0,65,0.1,97.4-0.1c8.3,0,15.9,6.4,15.7,15.6c-0.3,14.5,0,29.1-0.1,43.6c0,2.2,0.6,3,2.9,2.9 c3-0.2,6,0,9.2,0c0.1-0.9,0.1-1.8,0.1-2.7c0-9.5-0.2-19-0.1-28.5c0-8.5,5-14.8,12.8-16.1c4.8-0.8,9.1,0.7,12.6,4 c9.9,9.5,19.8,19.1,29.5,28.8c7.3,7.3,7,17.2-0.5,23.1c-2.8,2.2-6.1,3.2-9.7,3.2c-10,0-19.9,0-29.9,0.1c-0.8,0-1.7,0-2.6,0 c0,4.3,0,8.5,0,12.8c0.9,0,1.8,0,2.6,0c14.3,0,28.6,0,42.9,0c8.6,0,14.8,6,15.2,14.5c0,0.7,0,1.4,0,2.1c0,32.2,0,64.3-0.1,96.5 c0,6.4-2.9,11.2-8.7,13.9c-5.8,2.7-11.3,1.6-16.2-2.4c-0.8-0.7-1.6-1.5-2.4-2.2c-12.7-12.7-25.5-25.5-38.2-38.2 c-4.8-4.8-7.2-10.4-7.1-17.2c0.1-17.3,0-34.6,0-52c0-1,0-2,0-3.1c-4.1,0-8,0-12.2,0c0,1.1,0,2,0,2.9c0,13.5,0,26.9,0,40.4 c0,9.1-6.3,15.4-15.5,15.4c-14.5,0-28.9,0-43.4-0.1c-0.9,0-1.8,0-2.9,0c0,4.3,0,8.3,0,12.6c1,0,1.8,0,2.6,0c16.6,0,33.2,0,49.9,0 c6.6,0,12.2,2.2,16.8,6.9c14.2,14.3,28.4,28.5,42.6,42.7c4.2,4.2,5.1,9.1,3.6,14.5c-1.6,5.7-5.5,9.1-11.2,10.6 c-1.2,0.3-2.4,0.4-3.7,0.4c-32.5,0-64.9,0.1-97.4,0.1c-8.7,0-15.2-6.5-15.2-15.3c0-15.5,0.1-30.9,0.1-46.4c0-0.5,0-1.1,0-1.6 c-4.2,0-8.3,0-12.7,0c0,1.9,0,3.7,0,5.4c0,9,0.1,17.9,0.1,26.9c0,6.9-3.5,12.2-9.4,14.6c-5.7,2.4-11.9,0.9-16.8-3.9 c-9.8-9.7-19.5-19.4-29.2-29.2c-4.6-4.6-5.7-10.4-3.3-16.4c2.3-5.8,7.7-9.4,13.9-9.4c10.1,0,20.1-0.1,30.2-0.1 C85.6,193.9,86.4,193.9,87.5,193.9z M123.7,205.6c0,1.6,0,2.9,0,4.2c0,14.2,0,28.4,0,42.7c0,4.3,0.5,4.8,4.8,4.8 c30.4,0,60.7,0,91.1,0c1.9,0,3.7,0,5.6-0.2c2.7-0.2,3.9-2.9,2.4-5.1c-0.4-0.6-0.9-1-1.4-1.5c-13.5-13.6-27.1-27.1-40.6-40.7 c-2.7-2.8-5.8-4-9.7-4c-12.1,0-24.3-0.1-36.4-0.1C134.3,205.6,129.2,205.6,123.7,205.6z M173.7,86.2c0.1-0.6,0.1-0.9,0.1-1.2 c0-15.2,0-30.4-0.1-45.7c0-2.5-1.1-3.4-3.9-3.4c-32.4,0-64.8,0-97.1,0c-1.6,0-3.1,0.1-3.8,1.9c-0.6,1.7,0.2,2.9,1.4,4.1 c13.7,13.4,27.3,26.9,40.9,40.3c2.5,2.5,5.5,3.8,9.1,3.8c16.4,0,32.8,0.1,49.1,0.1C170.9,86.2,172.2,86.2,173.7,86.2z M209.6,122.7 c0,0.9,0,1.6,0,2.4c0,17.1,0,34.2-0.1,51.3c0,4.2,1.4,7.4,4.3,10.3c8.2,8.2,16.3,16.5,24.5,24.7c4.8,4.9,9.6,9.8,14.6,14.6 c0.9,0.8,2.7,1.5,3.6,1.1c1-0.5,1.6-2.2,2.2-3.4c0.2-0.4,0-1.1,0-1.6c0-31.5,0-63.1,0-94.6c0-4-0.9-4.9-4.9-4.9c-14,0-28,0-42,0.1 C211.2,122.6,210.5,122.6,209.6,122.7z M87.6,169.6c0-1.1,0-2,0-2.8c0-16.8-0.1-33.5-0.1-50.3c0-3.9-1.3-7.1-4-9.8 C70.8,93.8,58.1,80.9,45.4,68.1c-1.3-1.3-2.6-2.4-4.4-1.6c-1.8,0.8-2,2.5-2,4.3c0,31.4,0,62.8,0,94.2c0,3.7,1,4.7,4.7,4.7 c13.8,0,27.5,0,41.3,0C85.7,169.6,86.5,169.6,87.6,169.6z M173.8,122.9c-0.5-0.1-0.8-0.2-1.1-0.2c-14.9-0.1-29.8-0.1-44.8-0.2 c-3,0-4.2,1.3-4.2,4.3c0,13.5,0,27.1,0,40.6c0,0.7,0.1,1.3,0.1,2c0.5,0.1,0.8,0.1,1.1,0.1c15,0,30,0,45,0c2.8,0,3.8-1.1,3.8-4 c0-9.2,0-18.4,0-27.6C173.8,133,173.8,128.1,173.8,122.9z M209.5,86.2c1.2,0,2,0,2.9,0c9.7-0.1,19.3-0.1,29-0.2 c0.5,0,1,0.1,1.4-0.1c1-0.6,2.5-1.1,2.8-2c0.3-1,0-2.8-0.8-3.5c-9.8-9.9-19.8-19.8-29.8-29.6c-0.7-0.7-2.6-1.1-3.5-0.7 c-0.9,0.4-1.9,1.9-1.9,3C209.5,64.1,209.5,75,209.5,86.2z M87.6,205.8c-11.1,0-21.8-0.1-32.5,0.1c-1.2,0-3,1.1-3.4,2.1 c-0.4,1,0.3,2.9,1.1,3.8c9.5,9.6,19.1,19.1,28.7,28.7c1.2,1.2,2.4,2,4.1,1.3c1.7-0.7,2-2.2,2-3.8c0-9.1,0-18.2,0-27.4 C87.6,209.1,87.6,207.7,87.6,205.8z M99.4,193.7c4.1,0,8.1,0,12.3,0c0-4.2,0-8.2,0-12.2c-4.2,0-8.1,0-12.3,0 C99.4,185.7,99.4,189.7,99.4,193.7z M197.6,98.1c-4.1,0-8,0-11.9,0c0,3.9,0,7.6,0,11.3c0,0.5,0.6,1.4,1,1.4 c3.6,0.1,7.2,0.1,10.9,0.1C197.6,106.4,197.6,102.4,197.6,98.1z" class="st0"/></g></svg>