<?xml version="1.0" encoding="utf-8"?>
<!-- Generator: Adobe Illustrator 19.0.0, SVG Export Plug-In . SVG Version: 6.00 Build 0)  -->
<svg version="1.1" id="Layer_1" xmlns="http://www.w3.org/2000/svg" xmlns:xlink="http://www.w3.org/1999/xlink" x="0px" y="0px"
	 viewBox="-209 386 153 22" style="enable-background:new -209 386 153 22;" xml:space="preserve">
<style type="text/css">
	.st0{enable-background:new    ;}
	.st1{fill:#231F20;}
	.st2{fill:#00ADEE;}
	.st3{fill:none;stroke:#00ADEE;stroke-width:0.8;stroke-miterlimit:10;}
</style>
<g class="st0">
	<path class="st1" d="M-197,404.9L-197,404.9c-0.3,0.4-0.6,0.8-1,1.2c-0.4,0.3-0.8,0.6-1.3,0.8c-0.5,0.2-0.9,0.4-1.4,0.5
		s-1,0.2-1.5,0.2c-1,0-1.9-0.2-2.7-0.5c-0.8-0.3-1.6-0.8-2.2-1.4c-0.6-0.6-1.1-1.3-1.4-2.2c-0.3-0.8-0.5-1.7-0.5-2.7
		s0.2-1.9,0.5-2.7c0.3-0.8,0.8-1.5,1.4-2.2c0.6-0.6,1.3-1.1,2.2-1.4c0.8-0.3,1.8-0.5,2.7-0.5c0.5,0,1,0.1,1.5,0.2
		c0.5,0.1,1,0.3,1.4,0.5c0.5,0.2,0.9,0.5,1.3,0.8c0.4,0.3,0.7,0.7,1,1.2l0,0V386h1.7v21.2h-1.7V404.9z M-196.8,400.7
		c0-0.7-0.1-1.4-0.4-2.1c-0.3-0.6-0.7-1.2-1.1-1.7c-0.4-0.5-1.1-0.9-1.7-1.1c-0.6-0.2-1.4-0.4-2.1-0.4c-0.8,0-1.5,0.1-2.1,0.4
		c-0.6,0.3-1.2,0.7-1.6,1.1c-0.4,0.5-0.8,1-1,1.7c-0.2,0.6-0.4,1.3-0.4,2.1c0,0.7,0.1,1.4,0.4,2.1c0.2,0.6,0.6,1.2,1,1.7
		c0.4,0.5,1,0.9,1.6,1.1c0.6,0.3,1.3,0.4,2.1,0.4s1.5-0.1,2.1-0.4c0.7-0.3,1.2-0.7,1.7-1.1c0.5-0.5,0.9-1,1.1-1.7
		C-196.9,402.1-196.8,401.4-196.8,400.7z"/>
	<path class="st1" d="M-181.1,401.7c0,0.6,0,1.2,0,1.7s0,1,0,1.4c0,0.4,0,0.8,0.1,1.2c0,0.4,0.1,0.7,0.1,1.1h-1.5
		c-0.1-0.6-0.2-1.3-0.2-2.1h-0.1c-0.5,0.8-1.1,1.5-1.8,1.8c-0.7,0.3-1.6,0.6-2.7,0.6c-0.6,0-1.1-0.1-1.7-0.2c-0.5-0.1-1-0.4-1.5-0.7
		c-0.4-0.3-0.8-0.7-1-1.2c-0.3-0.5-0.4-1.1-0.4-1.8c0-1,0.3-1.8,0.8-2.4s1.1-1,1.9-1.3c0.7-0.3,1.5-0.5,2.4-0.6
		c0.8-0.1,1.6-0.1,2.2-0.1h2v-0.8c0-1.1-0.3-1.9-1-2.4c-0.7-0.5-1.6-0.7-2.6-0.7c-1.5,0-2.8,0.5-3.9,1.5l-1-1.1
		c0.6-0.6,1.4-1,2.3-1.4c0.9-0.3,1.8-0.5,2.6-0.5c1.6,0,2.8,0.4,3.8,1.1c0.9,0.7,1.4,1.9,1.4,3.6v3.3H-181.1z M-184.5,400.7
		c-0.7,0-1.4,0-2.1,0.1c-0.7,0.1-1.3,0.3-1.8,0.5c-0.5,0.2-1,0.5-1.3,0.9c-0.3,0.4-0.5,0.8-0.5,1.4c0,0.4,0.1,0.7,0.3,1
		s0.4,0.6,0.7,0.8c0.3,0.2,0.6,0.3,0.9,0.4s0.7,0.2,1,0.2c0.9,0,1.6-0.1,2.2-0.4s1-0.6,1.4-1c0.3-0.4,0.6-0.9,0.7-1.4
		c0.1-0.5,0.2-1.1,0.2-1.6v-0.9H-184.5z"/>
	<path class="st1" d="M-176.6,397.9c0-0.2,0-0.5,0-0.9s0-0.7,0-1c0-0.4,0-0.7,0-1s0-0.5,0-0.7h1.7c0,0.5,0,1,0,1.4
		c0,0.4,0,0.7,0.1,0.9h0.1c0.3-0.7,0.9-1.3,1.7-1.8c0.8-0.5,1.7-0.8,2.7-0.8s1.8,0.2,2.5,0.5s1.1,0.7,1.5,1.2s0.6,1.1,0.8,1.8
		c0.1,0.7,0.2,1.4,0.2,2.1v7.7h-1.7v-7.6c0-0.5,0-1-0.1-1.5s-0.3-0.9-0.5-1.3s-0.6-0.7-1-0.9s-1-0.3-1.6-0.3c-0.6,0-1.2,0.1-1.8,0.3
		c-0.6,0.2-1,0.5-1.4,1c-0.4,0.4-0.7,1-1,1.7c-0.2,0.7-0.4,1.4-0.4,2.3v6.5h-1.7v-9.6H-176.6z"/>
</g>
<g class="st0">
	<path class="st2" d="M-142.9,405.3c-0.6,0.8-1.4,1.3-2.2,1.7s-1.7,0.5-2.6,0.5c-1,0-1.9-0.2-2.7-0.5s-1.6-0.8-2.2-1.4
		s-1.1-1.3-1.4-2.2c-0.3-0.8-0.5-1.7-0.5-2.7s0.2-1.9,0.5-2.7c0.3-0.8,0.8-1.5,1.4-2.2c0.6-0.6,1.3-1.1,2.2-1.4
		c0.8-0.3,1.8-0.5,2.7-0.5c1,0,1.8,0.2,2.6,0.6c0.8,0.4,1.5,0.9,2.2,1.7l-1.3,1c-0.5-0.5-1-1-1.6-1.3c-0.6-0.3-1.2-0.5-1.9-0.5
		c-0.8,0-1.5,0.1-2.1,0.4c-0.6,0.3-1.2,0.7-1.6,1.1c-0.4,0.5-0.8,1-1,1.7c-0.2,0.6-0.4,1.3-0.4,2.1c0,0.7,0.1,1.4,0.4,2.1
		c0.2,0.6,0.6,1.2,1,1.7c0.4,0.5,1,0.9,1.6,1.1c0.6,0.3,1.3,0.4,2.1,0.4c0.7,0,1.4-0.2,1.9-0.5c0.6-0.3,1.1-0.8,1.5-1.3
		L-142.9,405.3z"/>
	<path class="st2" d="M-130.3,401.7c0,0.6,0,1.2,0,1.7s0,1,0,1.4c0,0.4,0,0.8,0.1,1.2c0,0.4,0.1,0.7,0.1,1.1h-1.6
		c-0.1-0.6-0.2-1.3-0.2-2.1h-0.1c-0.5,0.8-1.1,1.5-1.8,1.8c-0.7,0.3-1.6,0.6-2.7,0.6c-0.6,0-1.1-0.1-1.7-0.2c-0.5-0.1-1-0.4-1.5-0.7
		c-0.4-0.3-0.8-0.7-1-1.2c-0.3-0.5-0.4-1.1-0.4-1.8c0-1,0.3-1.8,0.8-2.4s1.1-1,1.9-1.3c0.7-0.3,1.5-0.5,2.4-0.6
		c0.8-0.1,1.6-0.1,2.2-0.1h2v-0.8c0-1.1-0.3-1.9-1-2.4s-1.6-0.7-2.6-0.7c-1.5,0-2.8,0.5-3.9,1.5l-1-1.1c0.6-0.6,1.4-1,2.3-1.4
		c0.9-0.3,1.8-0.5,2.6-0.5c1.6,0,2.8,0.4,3.8,1.1c0.9,0.7,1.4,1.9,1.4,3.6L-130.3,401.7L-130.3,401.7z M-133.6,400.7
		c-0.7,0-1.4,0-2.1,0.1c-0.7,0.1-1.3,0.3-1.8,0.5c-0.5,0.2-1,0.5-1.3,0.9c-0.3,0.4-0.5,0.8-0.5,1.4c0,0.4,0.1,0.7,0.3,1
		s0.4,0.6,0.7,0.8c0.3,0.2,0.6,0.3,0.9,0.4c0.3,0.1,0.7,0.2,1,0.2c0.9,0,1.6-0.1,2.2-0.4c0.6-0.3,1-0.6,1.4-1
		c0.3-0.4,0.6-0.9,0.7-1.4c0.1-0.5,0.2-1.1,0.2-1.6v-0.9H-133.6z"/>
	<path class="st2" d="M-125.7,403.9c0.4,0.7,0.9,1.2,1.6,1.6s1.4,0.5,2.2,0.5c0.4,0,0.7-0.1,1.1-0.2c0.4-0.1,0.7-0.3,1-0.5
		c0.3-0.2,0.5-0.5,0.7-0.7c0.2-0.3,0.3-0.6,0.3-1c0-0.6-0.2-1-0.6-1.3c-0.4-0.3-0.9-0.5-1.4-0.7c-0.6-0.2-1.2-0.3-1.8-0.4
		c-0.7-0.1-1.3-0.3-1.8-0.6c-0.6-0.3-1-0.6-1.4-1s-0.6-1.1-0.6-1.9c0-0.6,0.1-1.2,0.4-1.7c0.3-0.5,0.6-0.9,1-1.2
		c0.4-0.3,0.9-0.5,1.4-0.7c0.5-0.1,1.1-0.2,1.6-0.2c1.1,0,2,0.2,2.8,0.6c0.8,0.4,1.4,1,1.8,1.8l-1.5,0.9c-0.3-0.6-0.7-1-1.2-1.4
		c-0.5-0.3-1.1-0.5-1.9-0.5c-0.3,0-0.6,0-0.9,0.1c-0.3,0.1-0.6,0.2-0.9,0.4c-0.3,0.2-0.5,0.4-0.7,0.6c-0.2,0.3-0.3,0.6-0.3,0.9
		c0,0.6,0.2,1,0.6,1.3c0.4,0.3,0.9,0.5,1.4,0.7c0.6,0.2,1.2,0.3,1.8,0.4c0.6,0.1,1.3,0.3,1.8,0.5c0.6,0.3,1,0.6,1.4,1.1
		s0.6,1.2,0.6,2c0,0.7-0.1,1.3-0.4,1.8s-0.6,0.9-1,1.2s-0.9,0.6-1.5,0.8c-0.6,0.2-1.1,0.3-1.8,0.3c-1.1,0-2.1-0.2-3.1-0.6
		c-0.9-0.4-1.6-1.1-2.1-2L-125.7,403.9z"/>
	<path class="st2" d="M-103,405.3c-0.6,0.8-1.4,1.3-2.2,1.7s-1.7,0.5-2.6,0.5c-1,0-1.9-0.2-2.7-0.5s-1.6-0.8-2.2-1.4
		s-1.1-1.3-1.4-2.2c-0.3-0.8-0.5-1.7-0.5-2.7s0.2-1.9,0.5-2.7s0.8-1.5,1.4-2.2c0.6-0.7,1.3-1.1,2.2-1.4c0.9-0.3,1.8-0.5,2.7-0.5
		c1,0,1.8,0.2,2.6,0.6c0.8,0.4,1.5,0.9,2.2,1.7l-1.3,1c-0.5-0.5-1-1-1.6-1.3c-0.6-0.3-1.2-0.5-1.9-0.5c-0.8,0-1.5,0.1-2.1,0.4
		c-0.6,0.3-1.2,0.7-1.6,1.1s-0.8,1-1,1.7c-0.2,0.6-0.3,1.3-0.3,2.1c0,0.7,0.1,1.4,0.3,2.1c0.2,0.6,0.6,1.2,1,1.7s1,0.9,1.6,1.1
		c0.6,0.3,1.3,0.4,2.1,0.4c0.7,0,1.4-0.2,1.9-0.5c0.6-0.3,1.1-0.8,1.5-1.3L-103,405.3z"/>
	<path class="st2" d="M-90.3,401.7c0,0.6,0,1.2,0,1.7s0,1,0,1.4c0,0.4,0,0.8,0.1,1.2c0,0.4,0.1,0.7,0.1,1.1h-1.6
		c-0.1-0.6-0.2-1.3-0.2-2.1H-92c-0.5,0.8-1.1,1.5-1.8,1.8c-0.7,0.3-1.6,0.6-2.7,0.6c-0.6,0-1.1-0.1-1.7-0.2c-0.5-0.1-1-0.4-1.5-0.7
		c-0.4-0.3-0.8-0.7-1-1.2c-0.3-0.5-0.4-1.1-0.4-1.8c0-1,0.3-1.8,0.8-2.4s1.1-1,1.9-1.3c0.7-0.3,1.5-0.5,2.4-0.6
		c0.8-0.1,1.6-0.1,2.2-0.1h2v-0.8c0-1.1-0.3-1.9-1-2.4s-1.6-0.7-2.6-0.7c-1.5,0-2.8,0.5-3.9,1.5l-1-1.1c0.6-0.6,1.4-1,2.3-1.4
		c0.9-0.3,1.8-0.5,2.6-0.5c1.6,0,2.8,0.4,3.8,1.1c0.9,0.7,1.4,1.9,1.4,3.6v3.3H-90.3z M-93.7,400.7c-0.7,0-1.4,0-2.1,0.1
		c-0.7,0.1-1.3,0.3-1.8,0.5c-0.5,0.2-1,0.5-1.3,0.9c-0.3,0.4-0.5,0.8-0.5,1.4c0,0.4,0.1,0.7,0.3,1c0.2,0.3,0.4,0.6,0.7,0.8
		c0.3,0.2,0.6,0.3,0.9,0.4s0.7,0.2,1,0.2c0.9,0,1.6-0.1,2.2-0.4s1-0.6,1.4-1s0.6-0.9,0.7-1.4s0.2-1.1,0.2-1.6v-0.9H-93.7z"/>
	<path class="st2" d="M-87.7,394.2h1.9l4.3,11.1l4.2-11.1h1.7l-5.1,12.9h-1.7L-87.7,394.2z"/>
	<path class="st2" d="M-62.8,401.7c0,0.6,0,1.2,0,1.7s0,1,0,1.4c0,0.4,0,0.8,0.1,1.2c0,0.4,0.1,0.7,0.1,1.1h-1.6
		c-0.1-0.6-0.2-1.3-0.2-2.1h-0.1c-0.5,0.8-1.1,1.5-1.8,1.8c-0.7,0.3-1.6,0.6-2.7,0.6c-0.6,0-1.1-0.1-1.7-0.2c-0.5-0.1-1-0.4-1.5-0.7
		c-0.4-0.3-0.8-0.7-1-1.2c-0.3-0.5-0.4-1.1-0.4-1.8c0-1,0.3-1.8,0.8-2.4s1.1-1,1.9-1.3c0.7-0.3,1.5-0.5,2.4-0.6
		c0.8-0.1,1.6-0.1,2.2-0.1h2v-0.8c0-1.1-0.3-1.9-1-2.4s-1.6-0.7-2.6-0.7c-1.5,0-2.8,0.5-3.9,1.5l-1-1.1c0.6-0.6,1.4-1,2.3-1.4
		c0.9-0.3,1.8-0.5,2.6-0.5c1.6,0,2.8,0.4,3.8,1.1c0.9,0.7,1.4,1.9,1.4,3.6v3.3H-62.8z M-66.2,400.7c-0.7,0-1.4,0-2.1,0.1
		c-0.7,0.1-1.3,0.3-1.8,0.5c-0.5,0.2-1,0.5-1.3,0.9c-0.3,0.4-0.5,0.8-0.5,1.4c0,0.4,0.1,0.7,0.3,1c0.2,0.3,0.4,0.6,0.7,0.8
		c0.3,0.2,0.6,0.3,0.9,0.4s0.7,0.2,1,0.2c0.9,0,1.6-0.1,2.2-0.4s1-0.6,1.4-1s0.6-0.9,0.7-1.4s0.2-1.1,0.2-1.6v-0.9H-66.2z"/>
	<path class="st2" d="M-58.1,386h1.7v21.2h-1.7V386z"/>
</g>
<g class="st0">
	<path class="st3" d="M-142.9,405.3c-0.6,0.8-1.4,1.3-2.2,1.7s-1.7,0.5-2.6,0.5c-1,0-1.9-0.2-2.7-0.5s-1.6-0.8-2.2-1.4
		s-1.1-1.3-1.4-2.2c-0.3-0.8-0.5-1.7-0.5-2.7s0.2-1.9,0.5-2.7c0.3-0.8,0.8-1.5,1.4-2.2c0.6-0.6,1.3-1.1,2.2-1.4
		c0.8-0.3,1.8-0.5,2.7-0.5c1,0,1.8,0.2,2.6,0.6c0.8,0.4,1.5,0.9,2.2,1.7l-1.3,1c-0.5-0.5-1-1-1.6-1.3c-0.6-0.3-1.2-0.5-1.9-0.5
		c-0.8,0-1.5,0.1-2.1,0.4c-0.6,0.3-1.2,0.7-1.6,1.1c-0.4,0.5-0.8,1-1,1.7c-0.2,0.6-0.4,1.3-0.4,2.1c0,0.7,0.1,1.4,0.4,2.1
		c0.2,0.6,0.6,1.2,1,1.7c0.4,0.5,1,0.9,1.6,1.1c0.6,0.3,1.3,0.4,2.1,0.4c0.7,0,1.4-0.2,1.9-0.5c0.6-0.3,1.1-0.8,1.5-1.3
		L-142.9,405.3z"/>
	<path class="st3" d="M-130.3,401.7c0,0.6,0,1.2,0,1.7s0,1,0,1.4c0,0.4,0,0.8,0.1,1.2c0,0.4,0.1,0.7,0.1,1.1h-1.6
		c-0.1-0.6-0.2-1.3-0.2-2.1h-0.1c-0.5,0.8-1.1,1.5-1.8,1.8c-0.7,0.3-1.6,0.6-2.7,0.6c-0.6,0-1.1-0.1-1.7-0.2c-0.5-0.1-1-0.4-1.5-0.7
		c-0.4-0.3-0.8-0.7-1-1.2c-0.3-0.5-0.4-1.1-0.4-1.8c0-1,0.3-1.8,0.8-2.4s1.1-1,1.9-1.3c0.7-0.3,1.5-0.5,2.4-0.6
		c0.8-0.1,1.6-0.1,2.2-0.1h2v-0.8c0-1.1-0.3-1.9-1-2.4s-1.6-0.7-2.6-0.7c-1.5,0-2.8,0.5-3.9,1.5l-1-1.1c0.6-0.6,1.4-1,2.3-1.4
		c0.9-0.3,1.8-0.5,2.6-0.5c1.6,0,2.8,0.4,3.8,1.1c0.9,0.7,1.4,1.9,1.4,3.6L-130.3,401.7L-130.3,401.7z M-133.6,400.7
		c-0.7,0-1.4,0-2.1,0.1c-0.7,0.1-1.3,0.3-1.8,0.5c-0.5,0.2-1,0.5-1.3,0.9c-0.3,0.4-0.5,0.8-0.5,1.4c0,0.4,0.1,0.7,0.3,1
		s0.4,0.6,0.7,0.8c0.3,0.2,0.6,0.3,0.9,0.4c0.3,0.1,0.7,0.2,1,0.2c0.9,0,1.6-0.1,2.2-0.4c0.6-0.3,1-0.6,1.4-1
		c0.3-0.4,0.6-0.9,0.7-1.4c0.1-0.5,0.2-1.1,0.2-1.6v-0.9H-133.6z"/>
	<path class="st3" d="M-125.7,403.9c0.4,0.7,0.9,1.2,1.6,1.6s1.4,0.5,2.2,0.5c0.4,0,0.7-0.1,1.1-0.2c0.4-0.1,0.7-0.3,1-0.5
		c0.3-0.2,0.5-0.5,0.7-0.7c0.2-0.3,0.3-0.6,0.3-1c0-0.6-0.2-1-0.6-1.3c-0.4-0.3-0.9-0.5-1.4-0.7s-1.2-0.3-1.8-0.4
		c-0.7-0.1-1.3-0.3-1.8-0.6c-0.6-0.3-1-0.6-1.4-1s-0.6-1.1-0.6-1.9c0-0.6,0.1-1.2,0.4-1.7c0.3-0.5,0.6-0.9,1-1.2
		c0.4-0.3,0.9-0.5,1.4-0.7c0.5-0.1,1.1-0.2,1.6-0.2c1.1,0,2,0.2,2.8,0.6c0.8,0.4,1.4,1,1.8,1.8l-1.5,0.9c-0.3-0.6-0.7-1-1.2-1.4
		c-0.5-0.3-1.1-0.5-1.9-0.5c-0.3,0-0.6,0-0.9,0.1c-0.3,0.1-0.6,0.2-0.9,0.4c-0.3,0.2-0.5,0.4-0.7,0.6c-0.2,0.3-0.3,0.6-0.3,0.9
		c0,0.6,0.2,1,0.6,1.3c0.4,0.3,0.9,0.5,1.4,0.7c0.6,0.2,1.2,0.3,1.8,0.4c0.6,0.1,1.3,0.3,1.8,0.5c0.5,0.2,1,0.6,1.4,1.1
		s0.6,1.2,0.6,2c0,0.7-0.1,1.3-0.4,1.8s-0.6,0.9-1,1.2s-0.9,0.6-1.5,0.8c-0.6,0.2-1.1,0.3-1.8,0.3c-1.1,0-2.1-0.2-3.1-0.6
		c-0.9-0.4-1.6-1.1-2.1-2L-125.7,403.9z"/>
	<path class="st3" d="M-103,405.3c-0.6,0.8-1.4,1.3-2.2,1.7c-0.8,0.4-1.7,0.5-2.6,0.5c-1,0-1.9-0.2-2.7-0.5
		c-0.8-0.3-1.6-0.8-2.2-1.4s-1.1-1.3-1.4-2.2c-0.3-0.8-0.5-1.7-0.5-2.7s0.2-1.9,0.5-2.7s0.8-1.5,1.4-2.2c0.6-0.6,1.3-1.1,2.2-1.4
		c0.8-0.3,1.8-0.5,2.7-0.5c1,0,1.8,0.2,2.6,0.6c0.8,0.4,1.5,0.9,2.2,1.7l-1.3,1c-0.5-0.5-1-1-1.6-1.3c-0.6-0.3-1.2-0.5-1.9-0.5
		c-0.8,0-1.5,0.1-2.1,0.4c-0.6,0.3-1.2,0.7-1.6,1.1c-0.4,0.5-0.8,1-1,1.7c-0.2,0.6-0.4,1.3-0.4,2.1c0,0.7,0.1,1.4,0.4,2.1
		c0.2,0.6,0.6,1.2,1,1.7s1,0.9,1.6,1.1c0.6,0.3,1.3,0.4,2.1,0.4c0.7,0,1.4-0.2,1.9-0.5c0.6-0.3,1.1-0.8,1.5-1.3L-103,405.3z"/>
	<path class="st3" d="M-90.3,401.7c0,0.6,0,1.2,0,1.7s0,1,0,1.4c0,0.4,0,0.8,0.1,1.2c0,0.4,0.1,0.7,0.1,1.1h-1.6
		c-0.1-0.6-0.2-1.3-0.2-2.1H-92c-0.5,0.8-1.1,1.5-1.8,1.8c-0.7,0.3-1.6,0.6-2.7,0.6c-0.6,0-1.1-0.1-1.7-0.2c-0.5-0.1-1-0.4-1.5-0.7
		c-0.4-0.3-0.8-0.7-1-1.2c-0.3-0.5-0.4-1.1-0.4-1.8c0-1,0.3-1.8,0.8-2.4s1.1-1,1.9-1.3c0.7-0.3,1.5-0.5,2.4-0.6
		c0.8-0.1,1.6-0.1,2.2-0.1h2v-0.8c0-1.1-0.3-1.9-1-2.4s-1.6-0.7-2.6-0.7c-1.5,0-2.8,0.5-3.9,1.5l-1-1.1c0.6-0.6,1.4-1,2.3-1.4
		c0.9-0.3,1.8-0.5,2.6-0.5c1.6,0,2.8,0.4,3.8,1.1c1,0.7,1.4,1.9,1.4,3.6v3.3H-90.3z M-93.7,400.7c-0.7,0-1.4,0-2.1,0.1
		c-0.7,0.1-1.3,0.3-1.8,0.5c-0.5,0.2-1,0.5-1.3,0.9c-0.3,0.4-0.5,0.8-0.5,1.4c0,0.4,0.1,0.7,0.3,1c0.2,0.3,0.4,0.6,0.7,0.8
		c0.3,0.2,0.6,0.3,0.9,0.4s0.7,0.2,1,0.2c0.9,0,1.6-0.1,2.2-0.4s1-0.6,1.4-1c0.3-0.4,0.6-0.9,0.7-1.4s0.2-1.1,0.2-1.6v-0.9H-93.7z"
		/>
	<path class="st3" d="M-87.7,394.2h1.9l4.3,11.1l4.2-11.1h1.7l-5.1,12.9h-1.7L-87.7,394.2z"/>
	<path class="st3" d="M-62.8,401.7c0,0.6,0,1.2,0,1.7s0,1,0,1.4c0,0.4,0,0.8,0.1,1.2c0,0.4,0.1,0.7,0.1,1.1h-1.6
		c-0.1-0.6-0.2-1.3-0.2-2.1h-0.1c-0.5,0.8-1.1,1.5-1.8,1.8c-0.7,0.3-1.6,0.6-2.7,0.6c-0.6,0-1.1-0.1-1.7-0.2c-0.6-0.1-1-0.4-1.5-0.7
		s-0.8-0.7-1-1.2c-0.3-0.5-0.4-1.1-0.4-1.8c0-1,0.3-1.8,0.8-2.4s1.1-1,1.9-1.3c0.7-0.3,1.5-0.5,2.4-0.6c0.8-0.1,1.6-0.1,2.2-0.1h2
		v-0.8c0-1.1-0.3-1.9-1-2.4s-1.6-0.7-2.6-0.7c-1.5,0-2.8,0.5-3.9,1.5l-1-1.1c0.6-0.6,1.4-1,2.3-1.4c0.9-0.3,1.8-0.5,2.6-0.5
		c1.6,0,2.8,0.4,3.8,1.1c1,0.7,1.4,1.9,1.4,3.6v3.3H-62.8z M-66.2,400.7c-0.7,0-1.4,0-2.1,0.1c-0.7,0.1-1.3,0.3-1.8,0.5
		c-0.5,0.2-1,0.5-1.3,0.9c-0.3,0.4-0.5,0.8-0.5,1.4c0,0.4,0.1,0.7,0.3,1c0.2,0.3,0.4,0.6,0.7,0.8c0.3,0.2,0.6,0.3,0.9,0.4
		s0.7,0.2,1,0.2c0.9,0,1.6-0.1,2.2-0.4s1-0.6,1.4-1c0.3-0.4,0.6-0.9,0.7-1.4s0.2-1.1,0.2-1.6v-0.9H-66.2z"/>
	<path class="st3" d="M-58.1,386h1.7v21.2h-1.7V386z"/>
</g>
<ellipse id="XMLID_8_" class="st1" cx="-159.9" cy="401.5" rx="1.1" ry="1.2"/>
</svg>
