<?xml version="1.0" encoding="utf-8"?>
<!-- Generator: Adobe Illustrator 19.0.0, SVG Export Plug-In . SVG Version: 6.00 Build 0)  -->
<svg version="1.1" id="Layer_1" xmlns="http://www.w3.org/2000/svg" xmlns:xlink="http://www.w3.org/1999/xlink" x="0px" y="0px"
	 viewBox="-207.7 386 153 22" style="enable-background:new -207.7 386 153 22;" xml:space="preserve">
<style type="text/css">
	.st0{enable-background:new    ;}
	.st1{fill:#E6E6E6;}
	.st2{fill:#00ADEE;}
	.st3{fill:none;stroke:#00ADEE;stroke-width:0.8;stroke-miterlimit:10;}
</style>
<g class="st0">
	<path class="st1" d="M-195.6,404.9L-195.6,404.9c-0.3,0.4-0.6,0.8-1,1.2c-0.4,0.3-0.8,0.6-1.3,0.8c-0.5,0.2-0.9,0.4-1.4,0.5
		s-1,0.2-1.5,0.2c-1,0-1.9-0.2-2.7-0.5s-1.6-0.8-2.2-1.4c-0.6-0.6-1.1-1.3-1.4-2.2c-0.3-0.8-0.5-1.7-0.5-2.7s0.2-1.9,0.5-2.7
		s0.8-1.5,1.4-2.2c0.6-0.6,1.3-1.1,2.2-1.4c0.8-0.3,1.8-0.5,2.7-0.5c0.5,0,1,0.1,1.5,0.2s1,0.3,1.4,0.5c0.5,0.2,0.9,0.5,1.3,0.8
		c0.4,0.3,0.7,0.7,1,1.2l0,0V386h1.7v21.2h-1.7V404.9z M-195.4,400.7c0-0.7-0.1-1.4-0.4-2.1c-0.3-0.6-0.7-1.2-1.1-1.7
		c-0.4-0.5-1.1-0.9-1.7-1.1s-1.4-0.4-2.1-0.4c-0.8,0-1.5,0.1-2.1,0.4s-1.2,0.7-1.6,1.1c-0.4,0.5-0.8,1-1,1.7
		c-0.2,0.6-0.4,1.3-0.4,2.1c0,0.7,0.1,1.4,0.4,2.1c0.2,0.6,0.6,1.2,1,1.7s1,0.9,1.6,1.1c0.6,0.3,1.3,0.4,2.1,0.4s1.5-0.1,2.1-0.4
		c0.7-0.3,1.2-0.7,1.7-1.1c0.5-0.5,0.9-1,1.1-1.7C-195.5,402.1-195.4,401.4-195.4,400.7z"/>
	<path class="st1" d="M-179.7,401.7c0,0.6,0,1.2,0,1.7s0,1,0,1.4s0,0.8,0.1,1.2c0,0.4,0.1,0.7,0.1,1.1h-1.5
		c-0.1-0.6-0.2-1.3-0.2-2.1h-0.1c-0.5,0.8-1.1,1.5-1.8,1.8s-1.6,0.6-2.7,0.6c-0.6,0-1.1-0.1-1.7-0.2c-0.5-0.1-1-0.4-1.5-0.7
		c-0.4-0.3-0.8-0.7-1-1.2c-0.3-0.5-0.4-1.1-0.4-1.8c0-1,0.3-1.8,0.8-2.4s1.1-1,1.9-1.3c0.7-0.3,1.5-0.5,2.4-0.6
		c0.8-0.1,1.6-0.1,2.2-0.1h2v-0.8c0-1.1-0.3-1.9-1-2.4s-1.6-0.7-2.6-0.7c-1.5,0-2.8,0.5-3.9,1.5l-1-1.1c0.6-0.6,1.4-1,2.3-1.4
		c0.9-0.3,1.8-0.5,2.6-0.5c1.6,0,2.8,0.4,3.8,1.1c0.9,0.7,1.4,1.9,1.4,3.6v3.3H-179.7z M-183.1,400.7c-0.7,0-1.4,0-2.1,0.1
		c-0.7,0.1-1.3,0.3-1.8,0.5s-1,0.5-1.3,0.9s-0.5,0.8-0.5,1.4c0,0.4,0.1,0.7,0.3,1s0.4,0.6,0.7,0.8c0.3,0.2,0.6,0.3,0.9,0.4
		s0.7,0.2,1,0.2c0.9,0,1.6-0.1,2.2-0.4c0.6-0.3,1-0.6,1.4-1c0.3-0.4,0.6-0.9,0.7-1.4s0.2-1.1,0.2-1.6v-0.9H-183.1z"/>
	<path class="st1" d="M-175.2,397.9c0-0.2,0-0.5,0-0.9s0-0.7,0-1c0-0.4,0-0.7,0-1s0-0.5,0-0.7h1.7c0,0.5,0,1,0,1.4s0,0.7,0.1,0.9
		h0.1c0.3-0.7,0.9-1.3,1.7-1.8s1.7-0.8,2.7-0.8s1.8,0.2,2.5,0.5s1.1,0.7,1.5,1.2s0.6,1.1,0.8,1.8c0.1,0.7,0.2,1.4,0.2,2.1v7.7h-1.7
		v-7.6c0-0.5,0-1-0.1-1.5s-0.3-0.9-0.5-1.3s-0.6-0.7-1-0.9c-0.4-0.2-1-0.3-1.6-0.3s-1.2,0.1-1.8,0.3c-0.6,0.2-1,0.5-1.4,1
		c-0.4,0.4-0.7,1-1,1.7c-0.2,0.7-0.4,1.4-0.4,2.3v6.5h-1.7v-9.6L-175.2,397.9L-175.2,397.9z"/>
</g>
<g class="st0">
	<path class="st2" d="M-141.5,405.3c-0.6,0.8-1.4,1.3-2.2,1.7c-0.8,0.4-1.7,0.5-2.6,0.5c-1,0-1.9-0.2-2.7-0.5s-1.6-0.8-2.2-1.4
		c-0.6-0.6-1.1-1.3-1.4-2.2c-0.3-0.8-0.5-1.7-0.5-2.7s0.2-1.9,0.5-2.7c0.3-0.8,0.8-1.5,1.4-2.2c0.6-0.6,1.3-1.1,2.2-1.4
		c0.8-0.3,1.8-0.5,2.7-0.5c1,0,1.8,0.2,2.6,0.6s1.5,0.9,2.2,1.7l-1.3,1c-0.5-0.5-1-1-1.6-1.3s-1.2-0.5-1.9-0.5
		c-0.8,0-1.5,0.1-2.1,0.4s-1.2,0.7-1.6,1.1c-0.4,0.5-0.8,1-1,1.7c-0.2,0.6-0.4,1.3-0.4,2.1c0,0.7,0.1,1.4,0.4,2.1
		c0.2,0.6,0.6,1.2,1,1.7s1,0.9,1.6,1.1c0.6,0.3,1.3,0.4,2.1,0.4c0.7,0,1.4-0.2,1.9-0.5c0.6-0.3,1.1-0.8,1.5-1.3L-141.5,405.3z"/>
	<path class="st2" d="M-128.9,401.7c0,0.6,0,1.2,0,1.7s0,1,0,1.4s0,0.8,0.1,1.2c0,0.4,0.1,0.7,0.1,1.1h-1.6
		c-0.1-0.6-0.2-1.3-0.2-2.1h-0.1c-0.5,0.8-1.1,1.5-1.8,1.8s-1.6,0.6-2.7,0.6c-0.6,0-1.1-0.1-1.7-0.2c-0.5-0.1-1-0.4-1.5-0.7
		c-0.4-0.3-0.8-0.7-1-1.2c-0.3-0.5-0.4-1.1-0.4-1.8c0-1,0.3-1.8,0.8-2.4s1.1-1,1.9-1.3c0.7-0.3,1.5-0.5,2.4-0.6
		c0.8-0.1,1.6-0.1,2.2-0.1h2v-0.8c0-1.1-0.3-1.9-1-2.4s-1.6-0.7-2.6-0.7c-1.5,0-2.8,0.5-3.9,1.5l-1-1.1c0.6-0.6,1.4-1,2.3-1.4
		c0.9-0.3,1.8-0.5,2.6-0.5c1.6,0,2.8,0.4,3.8,1.1c0.9,0.7,1.4,1.9,1.4,3.6v3.3H-128.9z M-132.2,400.7c-0.7,0-1.4,0-2.1,0.1
		c-0.7,0.1-1.3,0.3-1.8,0.5s-1,0.5-1.3,0.9s-0.5,0.8-0.5,1.4c0,0.4,0.1,0.7,0.3,1s0.4,0.6,0.7,0.8c0.3,0.2,0.6,0.3,0.9,0.4
		s0.7,0.2,1,0.2c0.9,0,1.6-0.1,2.2-0.4c0.6-0.3,1-0.6,1.4-1c0.3-0.4,0.6-0.9,0.7-1.4c0.1-0.5,0.2-1.1,0.2-1.6v-0.9H-132.2z"/>
	<path class="st2" d="M-124.3,403.9c0.4,0.7,0.9,1.2,1.6,1.6s1.4,0.5,2.2,0.5c0.4,0,0.7-0.1,1.1-0.2s0.7-0.3,1-0.5s0.5-0.5,0.7-0.7
		c0.2-0.3,0.3-0.6,0.3-1c0-0.6-0.2-1-0.6-1.3s-0.9-0.5-1.4-0.7c-0.6-0.2-1.2-0.3-1.8-0.4c-0.7-0.1-1.3-0.3-1.8-0.6
		c-0.6-0.3-1-0.6-1.4-1s-0.6-1.1-0.6-1.9c0-0.6,0.1-1.2,0.4-1.7c0.3-0.5,0.6-0.9,1-1.2c0.4-0.3,0.9-0.5,1.4-0.7
		c0.5-0.1,1.1-0.2,1.6-0.2c1.1,0,2,0.2,2.8,0.6s1.4,1,1.8,1.8l-1.5,0.9c-0.3-0.6-0.7-1-1.2-1.4c-0.5-0.3-1.1-0.5-1.9-0.5
		c-0.3,0-0.6,0-0.9,0.1s-0.6,0.2-0.9,0.4s-0.5,0.4-0.7,0.6c-0.2,0.3-0.3,0.6-0.3,0.9c0,0.6,0.2,1,0.6,1.3s0.9,0.5,1.4,0.7
		c0.6,0.2,1.2,0.3,1.8,0.4c0.6,0.1,1.3,0.3,1.8,0.5c0.6,0.3,1,0.6,1.4,1.1s0.6,1.2,0.6,2c0,0.7-0.1,1.3-0.4,1.8s-0.6,0.9-1,1.2
		s-0.9,0.6-1.5,0.8c-0.6,0.2-1.1,0.3-1.8,0.3c-1.1,0-2.1-0.2-3.1-0.6c-0.9-0.4-1.6-1.1-2.1-2L-124.3,403.9z"/>
	<path class="st2" d="M-101.6,405.3c-0.6,0.8-1.4,1.3-2.2,1.7s-1.7,0.5-2.6,0.5c-1,0-1.9-0.2-2.7-0.5c-0.8-0.3-1.6-0.8-2.2-1.4
		s-1.1-1.3-1.4-2.2c-0.3-0.8-0.5-1.7-0.5-2.7s0.2-1.9,0.5-2.7c0.3-0.8,0.8-1.5,1.4-2.2s1.3-1.1,2.2-1.4c0.9-0.3,1.8-0.5,2.7-0.5
		c1,0,1.8,0.2,2.6,0.6c0.8,0.4,1.5,0.9,2.2,1.7l-1.3,1c-0.5-0.5-1-1-1.6-1.3s-1.2-0.5-1.9-0.5c-0.8,0-1.5,0.1-2.1,0.4
		s-1.2,0.7-1.6,1.1s-0.8,1-1,1.7c-0.2,0.6-0.3,1.3-0.3,2.1c0,0.7,0.1,1.4,0.3,2.1c0.2,0.6,0.6,1.2,1,1.7s1,0.9,1.6,1.1
		c0.6,0.3,1.3,0.4,2.1,0.4c0.7,0,1.4-0.2,1.9-0.5c0.6-0.3,1.1-0.8,1.5-1.3L-101.6,405.3z"/>
	<path class="st2" d="M-88.9,401.7c0,0.6,0,1.2,0,1.7s0,1,0,1.4s0,0.8,0.1,1.2c0,0.4,0.1,0.7,0.1,1.1h-1.6c-0.1-0.6-0.2-1.3-0.2-2.1
		h-0.1c-0.5,0.8-1.1,1.5-1.8,1.8c-0.7,0.3-1.6,0.6-2.7,0.6c-0.6,0-1.1-0.1-1.7-0.2c-0.5-0.1-1-0.4-1.5-0.7c-0.4-0.3-0.8-0.7-1-1.2
		c-0.3-0.5-0.4-1.1-0.4-1.8c0-1,0.3-1.8,0.8-2.4s1.1-1,1.9-1.3c0.7-0.3,1.5-0.5,2.4-0.6c0.8-0.1,1.6-0.1,2.2-0.1h2v-0.8
		c0-1.1-0.3-1.9-1-2.4s-1.6-0.7-2.6-0.7c-1.5,0-2.8,0.5-3.9,1.5l-1-1.1c0.6-0.6,1.4-1,2.3-1.4c0.9-0.3,1.8-0.5,2.6-0.5
		c1.6,0,2.8,0.4,3.8,1.1c0.9,0.7,1.4,1.9,1.4,3.6v3.3H-88.9z M-92.3,400.7c-0.7,0-1.4,0-2.1,0.1s-1.3,0.3-1.8,0.5s-1,0.5-1.3,0.9
		s-0.5,0.8-0.5,1.4c0,0.4,0.1,0.7,0.3,1c0.2,0.3,0.4,0.6,0.7,0.8c0.3,0.2,0.6,0.3,0.9,0.4s0.7,0.2,1,0.2c0.9,0,1.6-0.1,2.2-0.4
		s1-0.6,1.4-1s0.6-0.9,0.7-1.4s0.2-1.1,0.2-1.6v-0.9H-92.3z"/>
	<path class="st2" d="M-86.3,394.2h1.9l4.3,11.1l4.2-11.1h1.7l-5.1,12.9H-81L-86.3,394.2z"/>
	<path class="st2" d="M-61.4,401.7c0,0.6,0,1.2,0,1.7s0,1,0,1.4s0,0.8,0.1,1.2c0,0.4,0.1,0.7,0.1,1.1h-1.6c-0.1-0.6-0.2-1.3-0.2-2.1
		h-0.1c-0.5,0.8-1.1,1.5-1.8,1.8c-0.7,0.3-1.6,0.6-2.7,0.6c-0.6,0-1.1-0.1-1.7-0.2c-0.5-0.1-1-0.4-1.5-0.7c-0.4-0.3-0.8-0.7-1-1.2
		c-0.3-0.5-0.4-1.1-0.4-1.8c0-1,0.3-1.8,0.8-2.4s1.1-1,1.9-1.3c0.7-0.3,1.5-0.5,2.4-0.6c0.8-0.1,1.6-0.1,2.2-0.1h2v-0.8
		c0-1.1-0.3-1.9-1-2.4c-0.7-0.5-1.6-0.7-2.6-0.7c-1.5,0-2.8,0.5-3.9,1.5l-1-1.1c0.6-0.6,1.4-1,2.3-1.4c0.9-0.3,1.8-0.5,2.6-0.5
		c1.6,0,2.8,0.4,3.8,1.1c0.9,0.7,1.4,1.9,1.4,3.6v3.3H-61.4z M-64.8,400.7c-0.7,0-1.4,0-2.1,0.1s-1.3,0.3-1.8,0.5s-1,0.5-1.3,0.9
		s-0.5,0.8-0.5,1.4c0,0.4,0.1,0.7,0.3,1c0.2,0.3,0.4,0.6,0.7,0.8c0.3,0.2,0.6,0.3,0.9,0.4s0.7,0.2,1,0.2c0.9,0,1.6-0.1,2.2-0.4
		s1-0.6,1.4-1c0.4-0.4,0.6-0.9,0.7-1.4s0.2-1.1,0.2-1.6v-0.9H-64.8z"/>
	<path class="st2" d="M-56.7,386h1.7v21.2h-1.7V386z"/>
</g>
<g class="st0">
	<path class="st3" d="M-141.5,405.3c-0.6,0.8-1.4,1.3-2.2,1.7c-0.8,0.4-1.7,0.5-2.6,0.5c-1,0-1.9-0.2-2.7-0.5s-1.6-0.8-2.2-1.4
		c-0.6-0.6-1.1-1.3-1.4-2.2c-0.3-0.8-0.5-1.7-0.5-2.7s0.2-1.9,0.5-2.7c0.3-0.8,0.8-1.5,1.4-2.2c0.6-0.6,1.3-1.1,2.2-1.4
		c0.8-0.3,1.8-0.5,2.7-0.5c1,0,1.8,0.2,2.6,0.6s1.5,0.9,2.2,1.7l-1.3,1c-0.5-0.5-1-1-1.6-1.3s-1.2-0.5-1.9-0.5
		c-0.8,0-1.5,0.1-2.1,0.4s-1.2,0.7-1.6,1.1c-0.4,0.5-0.8,1-1,1.7c-0.2,0.6-0.4,1.3-0.4,2.1c0,0.7,0.1,1.4,0.4,2.1
		c0.2,0.6,0.6,1.2,1,1.7s1,0.9,1.6,1.1c0.6,0.3,1.3,0.4,2.1,0.4c0.7,0,1.4-0.2,1.9-0.5c0.6-0.3,1.1-0.8,1.5-1.3L-141.5,405.3z"/>
	<path class="st3" d="M-128.9,401.7c0,0.6,0,1.2,0,1.7s0,1,0,1.4s0,0.8,0.1,1.2c0,0.4,0.1,0.7,0.1,1.1h-1.6
		c-0.1-0.6-0.2-1.3-0.2-2.1h-0.1c-0.5,0.8-1.1,1.5-1.8,1.8s-1.6,0.6-2.7,0.6c-0.6,0-1.1-0.1-1.7-0.2c-0.5-0.1-1-0.4-1.5-0.7
		c-0.4-0.3-0.8-0.7-1-1.2c-0.3-0.5-0.4-1.1-0.4-1.8c0-1,0.3-1.8,0.8-2.4s1.1-1,1.9-1.3c0.7-0.3,1.5-0.5,2.4-0.6
		c0.8-0.1,1.6-0.1,2.2-0.1h2v-0.8c0-1.1-0.3-1.9-1-2.4s-1.6-0.7-2.6-0.7c-1.5,0-2.8,0.5-3.9,1.5l-1-1.1c0.6-0.6,1.4-1,2.3-1.4
		c0.9-0.3,1.8-0.5,2.6-0.5c1.6,0,2.8,0.4,3.8,1.1c0.9,0.7,1.4,1.9,1.4,3.6v3.3H-128.9z M-132.2,400.7c-0.7,0-1.4,0-2.1,0.1
		c-0.7,0.1-1.3,0.3-1.8,0.5s-1,0.5-1.3,0.9s-0.5,0.8-0.5,1.4c0,0.4,0.1,0.7,0.3,1s0.4,0.6,0.7,0.8c0.3,0.2,0.6,0.3,0.9,0.4
		s0.7,0.2,1,0.2c0.9,0,1.6-0.1,2.2-0.4c0.6-0.3,1-0.6,1.4-1c0.3-0.4,0.6-0.9,0.7-1.4c0.1-0.5,0.2-1.1,0.2-1.6v-0.9H-132.2z"/>
	<path class="st3" d="M-124.3,403.9c0.4,0.7,0.9,1.2,1.6,1.6s1.4,0.5,2.2,0.5c0.4,0,0.7-0.1,1.1-0.2s0.7-0.3,1-0.5s0.5-0.5,0.7-0.7
		c0.2-0.3,0.3-0.6,0.3-1c0-0.6-0.2-1-0.6-1.3s-0.9-0.5-1.4-0.7s-1.2-0.3-1.8-0.4c-0.7-0.1-1.3-0.3-1.8-0.6c-0.6-0.3-1-0.6-1.4-1
		s-0.6-1.1-0.6-1.9c0-0.6,0.1-1.2,0.4-1.7c0.3-0.5,0.6-0.9,1-1.2c0.4-0.3,0.9-0.5,1.4-0.7c0.5-0.1,1.1-0.2,1.6-0.2
		c1.1,0,2,0.2,2.8,0.6s1.4,1,1.8,1.8l-1.5,0.9c-0.3-0.6-0.7-1-1.2-1.4c-0.5-0.3-1.1-0.5-1.9-0.5c-0.3,0-0.6,0-0.9,0.1
		s-0.6,0.2-0.9,0.4s-0.5,0.4-0.7,0.6c-0.2,0.3-0.3,0.6-0.3,0.9c0,0.6,0.2,1,0.6,1.3s0.9,0.5,1.4,0.7c0.6,0.2,1.2,0.3,1.8,0.4
		c0.6,0.1,1.3,0.3,1.8,0.5s1,0.6,1.4,1.1s0.6,1.2,0.6,2c0,0.7-0.1,1.3-0.4,1.8s-0.6,0.9-1,1.2s-0.9,0.6-1.5,0.8
		c-0.6,0.2-1.1,0.3-1.8,0.3c-1.1,0-2.1-0.2-3.1-0.6c-0.9-0.4-1.6-1.1-2.1-2L-124.3,403.9z"/>
	<path class="st3" d="M-101.6,405.3c-0.6,0.8-1.4,1.3-2.2,1.7c-0.8,0.4-1.7,0.5-2.6,0.5c-1,0-1.9-0.2-2.7-0.5
		c-0.8-0.3-1.6-0.8-2.2-1.4s-1.1-1.3-1.4-2.2c-0.3-0.8-0.5-1.7-0.5-2.7s0.2-1.9,0.5-2.7c0.3-0.8,0.8-1.5,1.4-2.2
		c0.6-0.6,1.3-1.1,2.2-1.4c0.8-0.3,1.8-0.5,2.7-0.5c1,0,1.8,0.2,2.6,0.6c0.8,0.4,1.5,0.9,2.2,1.7l-1.3,1c-0.5-0.5-1-1-1.6-1.3
		s-1.2-0.5-1.9-0.5c-0.8,0-1.5,0.1-2.1,0.4s-1.2,0.7-1.6,1.1c-0.4,0.5-0.8,1-1,1.7c-0.2,0.6-0.4,1.3-0.4,2.1c0,0.7,0.1,1.4,0.4,2.1
		c0.2,0.6,0.6,1.2,1,1.7s1,0.9,1.6,1.1c0.6,0.3,1.3,0.4,2.1,0.4c0.7,0,1.4-0.2,1.9-0.5c0.6-0.3,1.1-0.8,1.5-1.3L-101.6,405.3z"/>
	<path class="st3" d="M-88.9,401.7c0,0.6,0,1.2,0,1.7s0,1,0,1.4s0,0.8,0.1,1.2c0,0.4,0.1,0.7,0.1,1.1h-1.6c-0.1-0.6-0.2-1.3-0.2-2.1
		h-0.1c-0.5,0.8-1.1,1.5-1.8,1.8c-0.7,0.3-1.6,0.6-2.7,0.6c-0.6,0-1.1-0.1-1.7-0.2c-0.5-0.1-1-0.4-1.5-0.7c-0.4-0.3-0.8-0.7-1-1.2
		c-0.3-0.5-0.4-1.1-0.4-1.8c0-1,0.3-1.8,0.8-2.4s1.1-1,1.9-1.3c0.7-0.3,1.5-0.5,2.4-0.6c0.8-0.1,1.6-0.1,2.2-0.1h2v-0.8
		c0-1.1-0.3-1.9-1-2.4s-1.6-0.7-2.6-0.7c-1.5,0-2.8,0.5-3.9,1.5l-1-1.1c0.6-0.6,1.4-1,2.3-1.4c0.9-0.3,1.8-0.5,2.6-0.5
		c1.6,0,2.8,0.4,3.8,1.1s1.4,1.9,1.4,3.6v3.3H-88.9z M-92.3,400.7c-0.7,0-1.4,0-2.1,0.1s-1.3,0.3-1.8,0.5s-1,0.5-1.3,0.9
		s-0.5,0.8-0.5,1.4c0,0.4,0.1,0.7,0.3,1c0.2,0.3,0.4,0.6,0.7,0.8c0.3,0.2,0.6,0.3,0.9,0.4s0.7,0.2,1,0.2c0.9,0,1.6-0.1,2.2-0.4
		s1-0.6,1.4-1c0.3-0.4,0.6-0.9,0.7-1.4s0.2-1.1,0.2-1.6v-0.9H-92.3z"/>
	<path class="st3" d="M-86.3,394.2h1.9l4.3,11.1l4.2-11.1h1.7l-5.1,12.9H-81L-86.3,394.2z"/>
	<path class="st3" d="M-61.4,401.7c0,0.6,0,1.2,0,1.7s0,1,0,1.4s0,0.8,0.1,1.2c0,0.4,0.1,0.7,0.1,1.1h-1.6c-0.1-0.6-0.2-1.3-0.2-2.1
		h-0.1c-0.5,0.8-1.1,1.5-1.8,1.8c-0.7,0.3-1.6,0.6-2.7,0.6c-0.6,0-1.1-0.1-1.7-0.2s-1-0.4-1.5-0.7c-0.5-0.3-0.8-0.7-1-1.2
		c-0.3-0.5-0.4-1.1-0.4-1.8c0-1,0.3-1.8,0.8-2.4s1.1-1,1.9-1.3c0.7-0.3,1.5-0.5,2.4-0.6c0.8-0.1,1.6-0.1,2.2-0.1h2v-0.8
		c0-1.1-0.3-1.9-1-2.4c-0.7-0.5-1.6-0.7-2.6-0.7c-1.5,0-2.8,0.5-3.9,1.5l-1-1.1c0.6-0.6,1.4-1,2.3-1.4c0.9-0.3,1.8-0.5,2.6-0.5
		c1.6,0,2.8,0.4,3.8,1.1s1.4,1.9,1.4,3.6v3.3H-61.4z M-64.8,400.7c-0.7,0-1.4,0-2.1,0.1s-1.3,0.3-1.8,0.5s-1,0.5-1.3,0.9
		s-0.5,0.8-0.5,1.4c0,0.4,0.1,0.7,0.3,1c0.2,0.3,0.4,0.6,0.7,0.8c0.3,0.2,0.6,0.3,0.9,0.4s0.7,0.2,1,0.2c0.9,0,1.6-0.1,2.2-0.4
		s1-0.6,1.4-1c0.3-0.4,0.6-0.9,0.7-1.4s0.2-1.1,0.2-1.6v-0.9H-64.8z"/>
	<path class="st3" d="M-56.7,386h1.7v21.2h-1.7V386z"/>
</g>
<ellipse id="XMLID_8_" class="st1" cx="-158.5" cy="401.5" rx="1.1" ry="1.2"/>
</svg>
