<?xml version="1.0" encoding="utf-8"?>
<!-- Generator: Adobe Illustrator 19.0.0, SVG Export Plug-In . SVG Version: 6.00 Build 0)  -->
<svg version="1.1" xmlns="http://www.w3.org/2000/svg" xmlns:xlink="http://www.w3.org/1999/xlink" x="0px" y="0px"
	 viewBox="-219 384.9 172.3 24.5" style="enable-background:new -219 384.9 172.3 24.5;" xml:space="preserve">
<style type="text/css">
	.st0{enable-background:new    ;}
	.st1{fill:#231F20;}
	.st2{fill:#00ADEE;}
	.st3{fill:none;stroke:#00ADEE;stroke-width:0.8;stroke-miterlimit:10;}
	.st4{fill:none;stroke:#E6E6E6;stroke-miterlimit:10;}
</style>
<g id="Layer_1">
	<g class="st0">
		<path class="st1" d="M-199.1,405.3L-199.1,405.3c-0.3,0.4-0.6,0.8-1,1.2c-0.4,0.3-0.8,0.6-1.3,0.8c-0.5,0.2-0.9,0.4-1.4,0.5
			c-0.5,0.1-1,0.2-1.5,0.2c-1,0-1.9-0.2-2.7-0.5c-0.8-0.3-1.6-0.8-2.2-1.4c-0.6-0.6-1.1-1.3-1.4-2.2c-0.3-0.8-0.5-1.7-0.5-2.7
			s0.2-1.9,0.5-2.7c0.3-0.8,0.8-1.5,1.4-2.2c0.6-0.6,1.3-1.1,2.2-1.4c0.8-0.3,1.8-0.5,2.7-0.5c0.5,0,1,0.1,1.5,0.2s1,0.3,1.4,0.5
			c0.5,0.2,0.9,0.5,1.3,0.8c0.4,0.3,0.7,0.7,1,1.2l0,0v-10.7h1.7v21.2h-1.7V405.3z M-198.9,401.1c0-0.7-0.1-1.4-0.4-2.1
			c-0.3-0.6-0.7-1.2-1.1-1.7c-0.4-0.5-1.1-0.9-1.7-1.1c-0.6-0.2-1.4-0.4-2.1-0.4c-0.8,0-1.5,0.1-2.1,0.4c-0.6,0.3-1.2,0.7-1.6,1.1
			c-0.4,0.5-0.8,1-1,1.7c-0.2,0.6-0.4,1.3-0.4,2.1c0,0.7,0.1,1.4,0.4,2.1c0.2,0.6,0.6,1.2,1,1.7c0.4,0.5,1,0.9,1.6,1.1
			c0.6,0.3,1.3,0.4,2.1,0.4s1.5-0.1,2.1-0.4c0.7-0.3,1.2-0.7,1.7-1.1c0.5-0.5,0.9-1,1.1-1.7C-199,402.5-198.9,401.8-198.9,401.1z"/>
		<path class="st1" d="M-183,402.1c0,0.6,0,1.2,0,1.7s0,1,0,1.4s0,0.7,0,1.2c0,0.4,0,0.7,0,1.1h-1.5c-0.1-0.6-0.2-1.3-0.2-2.1h-0.1
			c-0.5,0.8-1.1,1.5-1.8,1.8c-0.7,0.3-1.6,0.6-2.7,0.6c-0.6,0-1.1-0.1-1.7-0.2c-0.5-0.1-1-0.4-1.5-0.7c-0.4-0.3-0.8-0.7-1-1.2
			c-0.3-0.5-0.4-1.1-0.4-1.8c0-1,0.3-1.8,0.8-2.4s1.1-1,1.9-1.3c0.7-0.3,1.5-0.5,2.4-0.6c0.8-0.1,1.6-0.1,2.2-0.1h2v-0.8
			c0-1.1-0.3-1.9-1-2.4c-0.7-0.5-1.6-0.7-2.6-0.7c-1.5,0-2.8,0.5-3.9,1.5l-1-1.1c0.6-0.6,1.4-1,2.3-1.4c0.9-0.3,1.8-0.5,2.6-0.5
			c1.6,0,2.8,0.4,3.8,1.1c0.9,0.7,1.4,1.9,1.4,3.6L-183,402.1L-183,402.1z M-186.6,401.1c-0.7,0-1.4,0-2.1,0.1
			c-0.7,0.1-1.3,0.3-1.8,0.5c-0.5,0.2-1,0.5-1.3,0.9c-0.3,0.4-0.5,0.8-0.5,1.4c0,0.4,0.1,0.7,0.3,1c0.2,0.3,0.4,0.6,0.7,0.8
			c0.3,0.2,0.6,0.3,0.9,0.4s0.7,0.2,1,0.2c0.9,0,1.6-0.1,2.2-0.4c0.6-0.3,1-0.6,1.4-1c0.3-0.4,0.6-0.9,0.7-1.4
			c0.1-0.5,0.2-1.1,0.2-1.6v-0.9H-186.6z"/>
		<path class="st1" d="M-178.7,398.3c0-0.2,0-0.5,0-0.9s0-0.7,0-1c0-0.4,0-0.7,0-1c0-0.3,0-0.5,0-0.7h1.7c0,0.5,0,1,0,1.4
			s0,0.7,0.1,0.9h0.1c0.3-0.7,0.9-1.3,1.7-1.8c0.8-0.5,1.7-0.8,2.7-0.8s1.8,0.2,2.5,0.5c0.7,0.3,1.1,0.7,1.5,1.2
			c0.4,0.5,0.6,1.1,0.8,1.8c0.1,0.7,0.2,1.4,0.2,2.1v7.7h-1.7v-7.6c0-0.5,0-1-0.1-1.5s-0.3-0.9-0.5-1.3s-0.6-0.7-1-0.9
			s-1-0.3-1.6-0.3c-0.6,0-1.2,0.1-1.8,0.3c-0.6,0.2-1,0.5-1.4,1c-0.4,0.4-0.7,1-1,1.7c-0.2,0.7-0.4,1.4-0.4,2.3v6.5h-1.7
			L-178.7,398.3L-178.7,398.3z"/>
	</g>
	<g class="st0">
		<path class="st2" d="M-145,405.7c-0.6,0.8-1.4,1.3-2.2,1.7s-1.7,0.5-2.6,0.5c-1,0-1.9-0.2-2.7-0.5c-0.8-0.3-1.6-0.8-2.2-1.4
			s-1.1-1.3-1.4-2.2c-0.3-0.8-0.5-1.7-0.5-2.7s0.2-1.9,0.5-2.7c0.3-0.8,0.8-1.5,1.4-2.2c0.6-0.6,1.3-1.1,2.2-1.4
			c0.8-0.3,1.8-0.5,2.7-0.5c1,0,1.8,0.2,2.6,0.6c0.8,0.4,1.5,0.9,2.2,1.7l-1.3,1c-0.5-0.5-1-1-1.6-1.3c-0.6-0.3-1.2-0.5-1.9-0.5
			c-0.8,0-1.5,0.1-2.1,0.4c-0.6,0.3-1.2,0.7-1.6,1.1c-0.4,0.5-0.8,1-1,1.7c-0.2,0.6-0.4,1.3-0.4,2.1c0,0.7,0.1,1.4,0.4,2.1
			c0.2,0.6,0.6,1.2,1,1.7c0.4,0.5,1,0.9,1.6,1.1c0.6,0.3,1.3,0.4,2.1,0.4c0.7,0,1.4-0.2,1.9-0.5c0.6-0.3,1.1-0.8,1.5-1.3L-145,405.7
			z"/>
		<path class="st2" d="M-132.4,402.1c0,0.6,0,1.2,0,1.7s0,1,0,1.4c0,0.4,0,0.8,0.1,1.2c0,0.4,0.1,0.7,0.1,1.1h-1.6
			c-0.1-0.6-0.2-1.3-0.2-2.1h-0.1c-0.5,0.8-1.1,1.5-1.8,1.8c-0.7,0.3-1.6,0.6-2.7,0.6c-0.6,0-1.1-0.1-1.7-0.2
			c-0.5-0.1-1-0.4-1.5-0.7c-0.4-0.3-0.8-0.7-1-1.2c-0.3-0.5-0.4-1.1-0.4-1.8c0-1,0.3-1.8,0.8-2.4s1.1-1,1.9-1.3
			c0.7-0.3,1.5-0.5,2.4-0.6c0.8-0.1,1.6-0.1,2.2-0.1h2v-0.8c0-1.1-0.3-1.9-1-2.4s-1.6-0.7-2.6-0.7c-1.5,0-2.8,0.5-3.9,1.5l-1-1.1
			c0.6-0.6,1.4-1,2.3-1.4c0.9-0.3,1.8-0.5,2.6-0.5c1.6,0,2.8,0.4,3.8,1.1c0.9,0.7,1.4,1.9,1.4,3.6L-132.4,402.1L-132.4,402.1z
			 M-135.7,401.1c-0.7,0-1.4,0-2.1,0.1c-0.7,0.1-1.3,0.3-1.8,0.5c-0.5,0.2-1,0.5-1.3,0.9s-0.5,0.8-0.5,1.4c0,0.4,0.1,0.7,0.3,1
			c0.2,0.3,0.4,0.6,0.7,0.8c0.3,0.2,0.6,0.3,0.9,0.4c0.3,0.1,0.7,0.2,1,0.2c0.9,0,1.6-0.1,2.2-0.4c0.6-0.3,1-0.6,1.4-1
			c0.3-0.4,0.6-0.9,0.7-1.4c0.1-0.5,0.2-1.1,0.2-1.6v-0.9H-135.7z"/>
		<path class="st2" d="M-127.8,404.3c0.4,0.7,0.9,1.2,1.6,1.6s1.4,0.5,2.2,0.5c0.4,0,0.7-0.1,1.1-0.2c0.4-0.1,0.7-0.3,1-0.5
			c0.3-0.2,0.5-0.5,0.7-0.7c0.2-0.3,0.3-0.6,0.3-1c0-0.6-0.2-1-0.6-1.3c-0.4-0.3-0.9-0.5-1.4-0.7c-0.6-0.2-1.2-0.3-1.8-0.4
			c-0.7-0.1-1.3-0.3-1.8-0.6c-0.6-0.3-1-0.6-1.4-1s-0.6-1.1-0.6-1.9c0-0.6,0.1-1.2,0.4-1.7s0.6-0.9,1-1.2c0.4-0.3,0.9-0.5,1.4-0.7
			c0.5-0.1,1.1-0.2,1.6-0.2c1.1,0,2,0.2,2.8,0.6c0.8,0.4,1.4,1,1.8,1.8l-1.5,0.9c-0.3-0.6-0.7-1-1.2-1.4c-0.5-0.3-1.1-0.5-1.9-0.5
			c-0.3,0-0.6,0-0.9,0.1s-0.6,0.2-0.9,0.4c-0.3,0.2-0.5,0.4-0.7,0.6c-0.2,0.3-0.3,0.6-0.3,0.9c0,0.6,0.2,1,0.6,1.3
			c0.4,0.3,0.9,0.5,1.4,0.7c0.6,0.2,1.2,0.3,1.8,0.4c0.6,0.1,1.3,0.3,1.8,0.5c0.6,0.3,1,0.6,1.4,1.1s0.6,1.2,0.6,2
			c0,0.7-0.1,1.3-0.4,1.8s-0.6,0.9-1,1.2s-0.9,0.6-1.5,0.8c-0.6,0.2-1.1,0.3-1.8,0.3c-1.1,0-2.1-0.2-3.1-0.6c-0.9-0.4-1.6-1.1-2.1-2
			L-127.8,404.3z"/>
		<path class="st2" d="M-105.1,405.7c-0.6,0.8-1.4,1.3-2.2,1.7s-1.7,0.5-2.6,0.5c-1,0-1.9-0.2-2.7-0.5c-0.8-0.3-1.6-0.8-2.2-1.4
			s-1.1-1.3-1.4-2.2c-0.3-0.8-0.5-1.7-0.5-2.7s0.2-1.9,0.5-2.7c0.3-0.8,0.8-1.5,1.4-2.2c0.6-0.7,1.3-1.1,2.2-1.4
			c0.9-0.3,1.8-0.5,2.7-0.5c1,0,1.8,0.2,2.6,0.6c0.8,0.4,1.5,0.9,2.2,1.7l-1.3,1c-0.5-0.5-1-1-1.6-1.3c-0.6-0.3-1.2-0.5-1.9-0.5
			c-0.8,0-1.5,0.1-2.1,0.4c-0.6,0.3-1.2,0.7-1.6,1.1c-0.4,0.4-0.8,1-1,1.7c-0.2,0.6-0.3,1.3-0.3,2.1c0,0.7,0.1,1.4,0.3,2.1
			c0.2,0.6,0.6,1.2,1,1.7s1,0.9,1.6,1.1c0.6,0.3,1.3,0.4,2.1,0.4c0.7,0,1.4-0.2,1.9-0.5c0.6-0.3,1.1-0.8,1.5-1.3L-105.1,405.7z"/>
		<path class="st2" d="M-92.4,402.1c0,0.6,0,1.2,0,1.7s0,1,0,1.4c0,0.4,0,0.8,0.1,1.2c0,0.4,0.1,0.7,0.1,1.1h-1.6
			c-0.1-0.6-0.2-1.3-0.2-2.1h-0.1c-0.5,0.8-1.1,1.5-1.8,1.8c-0.7,0.3-1.6,0.6-2.7,0.6c-0.6,0-1.1-0.1-1.7-0.2
			c-0.5-0.1-1-0.4-1.5-0.7c-0.4-0.3-0.8-0.7-1-1.2c-0.3-0.5-0.4-1.1-0.4-1.8c0-1,0.3-1.8,0.8-2.4s1.1-1,1.9-1.3
			c0.7-0.3,1.5-0.5,2.4-0.6c0.8-0.1,1.6-0.1,2.2-0.1h2v-0.8c0-1.1-0.3-1.9-1-2.4s-1.6-0.7-2.6-0.7c-1.5,0-2.8,0.5-3.9,1.5l-1-1.1
			c0.6-0.6,1.4-1,2.3-1.4c0.9-0.3,1.8-0.5,2.6-0.5c1.6,0,2.8,0.4,3.8,1.1c0.9,0.7,1.4,1.9,1.4,3.6v3.3H-92.4z M-95.8,401.1
			c-0.7,0-1.4,0-2.1,0.1c-0.7,0.1-1.3,0.3-1.8,0.5c-0.5,0.2-1,0.5-1.3,0.9s-0.5,0.8-0.5,1.4c0,0.4,0.1,0.7,0.3,1
			c0.2,0.3,0.4,0.6,0.7,0.8c0.3,0.2,0.6,0.3,0.9,0.4s0.7,0.2,1,0.2c0.9,0,1.6-0.1,2.2-0.4c0.6-0.3,1-0.6,1.4-1s0.6-0.9,0.7-1.4
			s0.2-1.1,0.2-1.6v-0.9H-95.8z"/>
		<path class="st2" d="M-89.8,394.6h1.9l4.3,11.1l4.2-11.1h1.7l-5.1,12.9h-1.7L-89.8,394.6z"/>
		<path class="st2" d="M-64.9,402.1c0,0.6,0,1.2,0,1.7s0,1,0,1.4c0,0.4,0,0.8,0.1,1.2c0,0.4,0.1,0.7,0.1,1.1h-1.6
			c-0.1-0.6-0.2-1.3-0.2-2.1h-0.1c-0.5,0.8-1.1,1.5-1.8,1.8c-0.7,0.3-1.6,0.6-2.7,0.6c-0.6,0-1.1-0.1-1.7-0.2
			c-0.5-0.1-1-0.4-1.5-0.7c-0.4-0.3-0.8-0.7-1-1.2c-0.3-0.5-0.4-1.1-0.4-1.8c0-1,0.3-1.8,0.8-2.4s1.1-1,1.9-1.3
			c0.7-0.3,1.5-0.5,2.4-0.6c0.8-0.1,1.6-0.1,2.2-0.1h2v-0.8c0-1.1-0.3-1.9-1-2.4s-1.6-0.7-2.6-0.7c-1.5,0-2.8,0.5-3.9,1.5l-1-1.1
			c0.6-0.6,1.4-1,2.3-1.4c0.9-0.3,1.8-0.5,2.6-0.5c1.6,0,2.8,0.4,3.8,1.1c0.9,0.7,1.4,1.9,1.4,3.6v3.3H-64.9z M-68.3,401.1
			c-0.7,0-1.4,0-2.1,0.1c-0.7,0.1-1.3,0.3-1.8,0.5c-0.5,0.2-1,0.5-1.3,0.9s-0.5,0.8-0.5,1.4c0,0.4,0.1,0.7,0.3,1
			c0.2,0.3,0.4,0.6,0.7,0.8c0.3,0.2,0.6,0.3,0.9,0.4s0.7,0.2,1,0.2c0.9,0,1.6-0.1,2.2-0.4c0.6-0.3,1-0.6,1.4-1s0.6-0.9,0.7-1.4
			s0.2-1.1,0.2-1.6v-0.9H-68.3z"/>
		<path class="st2" d="M-60.2,386.4h1.7v21.2h-1.7V386.4z"/>
	</g>
	<g class="st0">
		<path class="st3" d="M-145,405.7c-0.6,0.8-1.4,1.3-2.2,1.7s-1.7,0.5-2.6,0.5c-1,0-1.9-0.2-2.7-0.5c-0.8-0.3-1.6-0.8-2.2-1.4
			s-1.1-1.3-1.4-2.2c-0.3-0.8-0.5-1.7-0.5-2.7s0.2-1.9,0.5-2.7c0.3-0.8,0.8-1.5,1.4-2.2c0.6-0.6,1.3-1.1,2.2-1.4
			c0.8-0.3,1.8-0.5,2.7-0.5c1,0,1.8,0.2,2.6,0.6c0.8,0.4,1.5,0.9,2.2,1.7l-1.3,1c-0.5-0.5-1-1-1.6-1.3c-0.6-0.3-1.2-0.5-1.9-0.5
			c-0.8,0-1.5,0.1-2.1,0.4c-0.6,0.3-1.2,0.7-1.6,1.1c-0.4,0.5-0.8,1-1,1.7c-0.2,0.6-0.4,1.3-0.4,2.1c0,0.7,0.1,1.4,0.4,2.1
			c0.2,0.6,0.6,1.2,1,1.7c0.4,0.5,1,0.9,1.6,1.1c0.6,0.3,1.3,0.4,2.1,0.4c0.7,0,1.4-0.2,1.9-0.5c0.6-0.3,1.1-0.8,1.5-1.3L-145,405.7
			z"/>
		<path class="st3" d="M-132.4,402.1c0,0.6,0,1.2,0,1.7s0,1,0,1.4c0,0.4,0,0.8,0.1,1.2c0,0.4,0.1,0.7,0.1,1.1h-1.6
			c-0.1-0.6-0.2-1.3-0.2-2.1h-0.1c-0.5,0.8-1.1,1.5-1.8,1.8c-0.7,0.3-1.6,0.6-2.7,0.6c-0.6,0-1.1-0.1-1.7-0.2
			c-0.5-0.1-1-0.4-1.5-0.7c-0.4-0.3-0.8-0.7-1-1.2c-0.3-0.5-0.4-1.1-0.4-1.8c0-1,0.3-1.8,0.8-2.4s1.1-1,1.9-1.3
			c0.7-0.3,1.5-0.5,2.4-0.6c0.8-0.1,1.6-0.1,2.2-0.1h2v-0.8c0-1.1-0.3-1.9-1-2.4s-1.6-0.7-2.6-0.7c-1.5,0-2.8,0.5-3.9,1.5l-1-1.1
			c0.6-0.6,1.4-1,2.3-1.4c0.9-0.3,1.8-0.5,2.6-0.5c1.6,0,2.8,0.4,3.8,1.1c0.9,0.7,1.4,1.9,1.4,3.6L-132.4,402.1L-132.4,402.1z
			 M-135.7,401.1c-0.7,0-1.4,0-2.1,0.1c-0.7,0.1-1.3,0.3-1.8,0.5c-0.5,0.2-1,0.5-1.3,0.9s-0.5,0.8-0.5,1.4c0,0.4,0.1,0.7,0.3,1
			c0.2,0.3,0.4,0.6,0.7,0.8c0.3,0.2,0.6,0.3,0.9,0.4c0.3,0.1,0.7,0.2,1,0.2c0.9,0,1.6-0.1,2.2-0.4c0.6-0.3,1-0.6,1.4-1
			c0.3-0.4,0.6-0.9,0.7-1.4c0.1-0.5,0.2-1.1,0.2-1.6v-0.9H-135.7z"/>
		<path class="st3" d="M-127.8,404.3c0.4,0.7,0.9,1.2,1.6,1.6s1.4,0.5,2.2,0.5c0.4,0,0.7-0.1,1.1-0.2c0.4-0.1,0.7-0.3,1-0.5
			c0.3-0.2,0.5-0.5,0.7-0.7c0.2-0.3,0.3-0.6,0.3-1c0-0.6-0.2-1-0.6-1.3c-0.4-0.3-0.9-0.5-1.4-0.7c-0.5-0.2-1.2-0.3-1.8-0.4
			c-0.7-0.1-1.3-0.3-1.8-0.6c-0.6-0.3-1-0.6-1.4-1s-0.6-1.1-0.6-1.9c0-0.6,0.1-1.2,0.4-1.7s0.6-0.9,1-1.2c0.4-0.3,0.9-0.5,1.4-0.7
			c0.5-0.1,1.1-0.2,1.6-0.2c1.1,0,2,0.2,2.8,0.6c0.8,0.4,1.4,1,1.8,1.8l-1.5,0.9c-0.3-0.6-0.7-1-1.2-1.4c-0.5-0.3-1.1-0.5-1.9-0.5
			c-0.3,0-0.6,0-0.9,0.1s-0.6,0.2-0.9,0.4c-0.3,0.2-0.5,0.4-0.7,0.6c-0.2,0.3-0.3,0.6-0.3,0.9c0,0.6,0.2,1,0.6,1.3
			c0.4,0.3,0.9,0.5,1.4,0.7c0.6,0.2,1.2,0.3,1.8,0.4c0.6,0.1,1.3,0.3,1.8,0.5c0.5,0.2,1,0.6,1.4,1.1s0.6,1.2,0.6,2
			c0,0.7-0.1,1.3-0.4,1.8s-0.6,0.9-1,1.2s-0.9,0.6-1.5,0.8c-0.6,0.2-1.1,0.3-1.8,0.3c-1.1,0-2.1-0.2-3.1-0.6c-0.9-0.4-1.6-1.1-2.1-2
			L-127.8,404.3z"/>
		<path class="st3" d="M-105.1,405.7c-0.6,0.8-1.4,1.3-2.2,1.7c-0.8,0.4-1.7,0.5-2.6,0.5c-1,0-1.9-0.2-2.7-0.5
			c-0.8-0.3-1.6-0.8-2.2-1.4s-1.1-1.3-1.4-2.2c-0.3-0.8-0.5-1.7-0.5-2.7s0.2-1.9,0.5-2.7c0.3-0.8,0.8-1.5,1.4-2.2
			c0.6-0.6,1.3-1.1,2.2-1.4c0.8-0.3,1.8-0.5,2.7-0.5c1,0,1.8,0.2,2.6,0.6c0.8,0.4,1.5,0.9,2.2,1.7l-1.3,1c-0.5-0.5-1-1-1.6-1.3
			c-0.6-0.3-1.2-0.5-1.9-0.5c-0.8,0-1.5,0.1-2.1,0.4c-0.6,0.3-1.2,0.7-1.6,1.1c-0.4,0.5-0.8,1-1,1.7c-0.2,0.6-0.4,1.3-0.4,2.1
			c0,0.7,0.1,1.4,0.4,2.1c0.2,0.6,0.6,1.2,1,1.7s1,0.9,1.6,1.1c0.6,0.3,1.3,0.4,2.1,0.4c0.7,0,1.4-0.2,1.9-0.5
			c0.6-0.3,1.1-0.8,1.5-1.3L-105.1,405.7z"/>
		<path class="st3" d="M-92.4,402.1c0,0.6,0,1.2,0,1.7s0,1,0,1.4c0,0.4,0,0.8,0.1,1.2c0,0.4,0.1,0.7,0.1,1.1h-1.6
			c-0.1-0.6-0.2-1.3-0.2-2.1h-0.1c-0.5,0.8-1.1,1.5-1.8,1.8c-0.7,0.3-1.6,0.6-2.7,0.6c-0.6,0-1.1-0.1-1.7-0.2
			c-0.5-0.1-1-0.4-1.5-0.7c-0.4-0.3-0.8-0.7-1-1.2c-0.3-0.5-0.4-1.1-0.4-1.8c0-1,0.3-1.8,0.8-2.4s1.1-1,1.9-1.3
			c0.7-0.3,1.5-0.5,2.4-0.6c0.8-0.1,1.6-0.1,2.2-0.1h2v-0.8c0-1.1-0.3-1.9-1-2.4s-1.6-0.7-2.6-0.7c-1.5,0-2.8,0.5-3.9,1.5l-1-1.1
			c0.6-0.6,1.4-1,2.3-1.4c0.9-0.3,1.8-0.5,2.6-0.5c1.6,0,2.8,0.4,3.8,1.1c1,0.7,1.4,1.9,1.4,3.6v3.3H-92.4z M-95.8,401.1
			c-0.7,0-1.4,0-2.1,0.1c-0.7,0.1-1.3,0.3-1.8,0.5c-0.5,0.2-1,0.5-1.3,0.9s-0.5,0.8-0.5,1.4c0,0.4,0.1,0.7,0.3,1
			c0.2,0.3,0.4,0.6,0.7,0.8c0.3,0.2,0.6,0.3,0.9,0.4s0.7,0.2,1,0.2c0.9,0,1.6-0.1,2.2-0.4c0.6-0.3,1-0.6,1.4-1
			c0.3-0.4,0.6-0.9,0.7-1.4s0.2-1.1,0.2-1.6v-0.9H-95.8z"/>
		<path class="st3" d="M-89.8,394.6h1.9l4.3,11.1l4.2-11.1h1.7l-5.1,12.9h-1.7L-89.8,394.6z"/>
		<path class="st3" d="M-64.9,402.1c0,0.6,0,1.2,0,1.7s0,1,0,1.4c0,0.4,0,0.8,0.1,1.2c0,0.4,0.1,0.7,0.1,1.1h-1.6
			c-0.1-0.6-0.2-1.3-0.2-2.1h-0.1c-0.5,0.8-1.1,1.5-1.8,1.8c-0.7,0.3-1.6,0.6-2.7,0.6c-0.6,0-1.1-0.1-1.7-0.2s-1-0.4-1.5-0.7
			c-0.5-0.3-0.8-0.7-1-1.2c-0.3-0.5-0.4-1.1-0.4-1.8c0-1,0.3-1.8,0.8-2.4s1.1-1,1.9-1.3c0.7-0.3,1.5-0.5,2.4-0.6
			c0.8-0.1,1.6-0.1,2.2-0.1h2v-0.8c0-1.1-0.3-1.9-1-2.4s-1.6-0.7-2.6-0.7c-1.5,0-2.8,0.5-3.9,1.5l-1-1.1c0.6-0.6,1.4-1,2.3-1.4
			c0.9-0.3,1.8-0.5,2.6-0.5c1.6,0,2.8,0.4,3.8,1.1c1,0.7,1.4,1.9,1.4,3.6v3.3H-64.9z M-68.3,401.1c-0.7,0-1.4,0-2.1,0.1
			c-0.7,0.1-1.3,0.3-1.8,0.5c-0.5,0.2-1,0.5-1.3,0.9s-0.5,0.8-0.5,1.4c0,0.4,0.1,0.7,0.3,1c0.2,0.3,0.4,0.6,0.7,0.8
			c0.3,0.2,0.6,0.3,0.9,0.4s0.7,0.2,1,0.2c0.9,0,1.6-0.1,2.2-0.4c0.6-0.3,1-0.6,1.4-1c0.3-0.4,0.6-0.9,0.7-1.4s0.2-1.1,0.2-1.6v-0.9
			H-68.3z"/>
		<path class="st3" d="M-60.2,386.4h1.7v21.2h-1.7V386.4z"/>
	</g>
	<ellipse id="XMLID_8_" class="st1" cx="-162" cy="401.9" rx="1.1" ry="1.2"/>
</g>
<g id="Layer_2">
	<path class="st4" d="M-204.3,408.5c-1,0-1.9-0.2-2.9-0.5c-0.9-0.3-1.7-0.9-2.4-1.5c-0.7-0.7-1.2-1.5-1.5-2.4
		c-0.3-0.9-0.5-1.9-0.5-2.9c0-1,0.2-1.9,0.5-2.9c0.4-1,1-1.8,1.5-2.3c0.8-0.8,1.5-1.3,2.4-1.5c0.9-0.3,1.9-0.5,2.9-0.5
		c0.5,0,1.1,0.1,1.6,0.2c0.6,0.1,1.2,0.4,1.5,0.5c0.5,0.2,1,0.5,1.4,0.8c0.1,0.1,0.1,0.1,0.2,0.2v-9.8h2.7v22.2h-2.7v-1.4
		c0,0-0.1,0.1-0.1,0.2c-0.5,0.4-0.9,0.7-1.5,0.9l-0.3,0.1c-0.4,0.2-0.7,0.3-1.2,0.4C-203.2,408.4-203.8,408.5-204.3,408.5z"/>
	<path class="st4" d="M-204.2,396.3c-0.8,0-1.4,0.1-1.9,0.3c-0.6,0.3-1.1,0.7-1.5,1c-0.3,0.4-0.7,0.9-0.9,1.5
		c-0.2,0.6-0.4,1.2-0.4,2c0,0.7,0.1,1.3,0.4,1.9c0.2,0.5,0.5,1,0.9,1.6c0.3,0.4,0.8,0.8,1.4,0.9c0.5,0.3,1.1,0.4,1.9,0.4
		s1.4-0.1,1.9-0.3c0.7-0.3,1.1-0.7,1.6-1c0.4-0.4,0.8-0.9,0.9-1.5c0.3-0.6,0.4-1.2,0.4-2c0-0.7-0.1-1.3-0.4-1.9
		c-0.3-0.5-0.6-1.1-1-1.6c-0.3-0.4-0.9-0.7-1.5-0.9C-202.7,396.5-203.5,396.3-204.2,396.3z"/>
	<path class="st4" d="M-189.3,408.3c-0.6,0-1.1-0.1-1.6-0.2l-0.2,0c-0.6-0.1-1.1-0.4-1.7-0.8c-0.6-0.5-1-0.9-1.2-1.4
		c-0.3-0.5-0.4-1.1-0.4-2c0-1.1,0.3-2,0.9-2.7c0.5-0.7,1.2-1.1,2.1-1.4c0.7-0.3,1.6-0.5,2.5-0.6c0.8-0.1,1.7-0.1,2.3-0.1h1.5v-0.3
		c0-1-0.3-1.6-0.8-2c-0.6-0.4-1.3-0.6-2.3-0.6c-1.4,0-2.5,0.4-3.6,1.4l-0.4,0.3l-1.7-1.8l0.3-0.3c0.7-0.7,1.6-1.1,2.5-1.5
		c1.1-0.4,2-0.5,2.8-0.5c1.6,0,2.9,0.4,4.1,1.2c1.1,0.8,1.6,2.2,1.6,4l0,3.3c0,0.3,0,0.6,0,0.9c0,0.3,0,0.6,0,0.8v1.4
		c0,0.4,0,0.7,0,1l0,1.8h-2.4l-0.1-0.4c0-0.3-0.1-0.6-0.1-0.9c-0.4,0.5-0.8,0.8-1.3,1C-187.1,407.9-188.1,408.3-189.3,408.3z"/>
	<path class="st4" d="M-186.6,401.6c-0.7,0-1.4,0-2,0.1c-0.7,0.1-1.3,0.3-1.7,0.5c-0.5,0.2-0.9,0.5-1.1,0.7
		c-0.2,0.3-0.4,0.6-0.4,1.1c0,0.3,0.1,0.5,0.2,0.7c0.2,0.3,0.3,0.5,0.6,0.7c0.2,0.2,0.5,0.2,0.8,0.3c0.3,0.1,0.7,0.2,0.8,0.2
		c0.9,0,1.5-0.1,2-0.3c0.5-0.3,0.9-0.5,1.3-0.9c0.3-0.4,0.5-0.8,0.6-1.1c0.1-0.6,0.2-1.1,0.2-1.5v-0.4H-186.6z"/>
	<path class="st4" d="M-179.1,408.4l-0.1-10.1l0-4.1h2.7v1.5c0.3-0.3,0.7-0.6,1.1-0.9c0.9-0.6,1.9-0.9,3-0.9c1,0,1.8,0.2,2.7,0.5
		c0.8,0.3,1.2,0.8,1.7,1.3c0.5,0.6,0.7,1.3,0.9,2c0.1,0.8,0.2,1.5,0.2,2.2v8.2h-2.7v-8.1c0-0.5,0-1-0.1-1.4
		c-0.1-0.4-0.3-0.8-0.5-1.2c-0.1-0.2-0.4-0.5-0.8-0.7c-0.3-0.2-0.8-0.2-1.4-0.2c-0.5,0-1.1,0.1-1.6,0.3c-0.5,0.2-0.8,0.4-1.2,0.8
		c-0.4,0.4-0.7,1-0.9,1.6c-0.2,0.6-0.4,1.3-0.4,2.1v7H-179.1z"/>
	<ellipse class="st4" cx="-162" cy="401.9" rx="1.6" ry="1.7"/>
</g>
</svg>
